# xmcd
#
# Track frame offsets:
#	150
#	11965
#	21302
#	37911
#	46987
#
# Disc length: 944 seconds
#
# Revision: 0
# Processed by: cddbd v1.5.1PL0 Copyright (c) Steve Scherf et al.
# Submitted via: dBpowerAMP V4.0
#
DISCID=3703ae05
DTITLE=Elias and The Wizzkids - EP
DYEAR=2005
DGENRE=Country
TTITLE0=Best Friend Blues
TTITLE1=I Want You
TTITLE2=Man Of Our Time
TTITLE3=Far Away From Home
TTITLE4=I'm On My Way Now
EXTD=First (that I know of) EP from the band. Submitted by Stefan
EXTT0=
EXTT1=
EXTT2=
EXTT3=
EXTT4=
PLAYORDER=
